<?xml version="1.0" encoding="utf-8"?>
<!-- Generator: Adobe Illustrator 24.0.1, SVG Export Plug-In . SVG Version: 6.00 Build 0)  -->
<svg version="1.1" id="thunder-symbol" xmlns="http://www.w3.org/2000/svg" xmlns:xlink="http://www.w3.org/1999/xlink" x="0px" y="0px"
	 viewBox="0 0 838.6 863.7" enable-background="new 0 0 934 934" xml:space="preserve">
    <path class="flash-one"  fill="transparent" d="M829.3 418.6c0 226.7-183.8 410.6-410.5 410.6S8.2 645.4 8.2 418.6 192 8.1 418.7 8.1s410.6 183.8 410.6 410.5z"/>
    <g>
      <path class="symbol-background"  fill="#0FF" d="M774.2 212.6C716.8 114 619.7 41.5 504.7 17l-77.4 195.5h346.9zM92.9 418.8l50.4-304.7C60.2 189.3 8 298 8 418.8 8 585.1 106.8 728.4 248.9 793l116.8-374.1-272.8-.1zM784.7 231.9L299.5 812.1c37.8 11.4 77.8 17.6 119.3 17.6 226.9 0 410.8-183.9 410.8-410.8 0-67.4-16.2-130.9-44.9-187z"/>
    </g>
</svg>

