<svg version="1.0" xmlns="http://www.w3.org/2000/svg" width="933.333" height="933.333" viewBox="0 0 700 700"><path d="M434.6 12.8C433.7 15.5 422 62 421.4 65c-.3 1.4-.9 3.8-1.4 5.5-.6 1.6-3.7 13.8-6.9 27-3.3 13.2-8.9 35.8-12.5 50.2-3.6 14.3-6.6 26.4-6.6 26.7 0 .3 58.1.6 129 .6 71 0 129-.3 129-.6 0-1-3.5-6.6-11.3-18.4-33.2-49.8-79.3-90.7-132.4-117.4-14.1-7.1-30.8-14.4-40.5-17.6-6-2-31.8-10-32.4-10-.1 0-.5.8-.8 1.8zM196 36.2c-13 6.3-26.3 14-40 23.1-9.3 6.2-21.6 15.1-23 16.7-.3.3-2.7 2.3-5.5 4.5C116 89.7 94.2 111 84.1 123c-3.5 4.1-7.3 8.6-8.4 10-4.8 5.7-20.2 28-26.1 37.9-11 18.2-21.2 39.7-28.7 60.6-4.2 11.3-11.7 36.9-12.4 41.7-.2 1.4-1 6.1-1.9 10.5C4 296.6 3.7 298.6 2.5 310c-.4 3.6-.9 7.8-1.2 9.5-.8 4.9-1 47.3-.2 56C2.2 388.2 3 396.3 3.5 399c.3 1.4.7 4.1 1 6 .5 3.1 3.2 18.1 4 22 2.1 10.2 12.3 43.1 16 51.5.7 1.6 2.5 5.9 4 9.5 15.7 37.7 42 76.3 73 107.6 21.3 21.4 40.6 36.7 65.5 52.1 12.7 7.8 33 18.6 33.7 17.9.4-.4 105.3-314.5 105.3-315.3 0-.1-49-.3-109-.3s-109-.3-109-.8c0-.4 2.1-6.1 4.6-12.7 2.5-6.6 5.2-14 6.1-16.5.8-2.5 2.1-5.9 2.8-7.5.7-1.7 8.4-21.9 17-45s16-43 16.5-44.2c.5-1.2 3.2-8.4 6-16 2.9-7.6 6.9-18.3 9-23.8 2-5.5 7.4-19.7 11.8-31.5s11.5-30.7 15.8-42c4.2-11.3 8.7-23.2 9.9-26.5 5.2-14.3 14.6-39.2 15.4-41 1.8-3.9 4.2-10.8 3.9-11-.2-.2-5 1.9-10.8 4.7zm453.4 146.5c-2.1 2.6-6.6 7.9-9.9 11.7-6.7 7.9-17.6 20.8-27.5 32.5-11.4 13.5-49.4 58.5-51.6 61.1-1.2 1.4-7.7 9-14.4 17-6.8 8-14.2 16.7-16.5 19.5-2.4 2.7-8.4 9.9-13.5 16-5.1 6-11.1 13.2-13.5 16-5.3 6.1-18.1 21.3-20.3 24-2.7 3.2-17.5 20.7-20.3 24-3.7 4.3-20.6 24.2-25.4 29.9-5.4 6.5-6.7 8-9 10.8-3.5 4.1-12.9 15.2-15 17.7-1.1 1.3-3.8 4.5-6 7.1-2.2 2.5-12.3 14.5-22.5 26.6-10.2 12-19.4 23-20.6 24.4-1.2 1.4-7.7 9-14.4 17s-13.3 15.7-14.6 17.2c-1.2 1.4-5.8 6.8-10.1 12-4.3 5.1-8.8 10.4-10 11.8-1.2 1.4-7.6 9-14.4 17-6.7 8-13.6 16.1-15.3 18.1-1.7 2-4.9 5.8-7.1 8.5-3.8 4.5-17.6 20.9-27 31.9-2.4 2.7-8 9.3-12.4 14.5l-8.1 9.5 11.2 3.7c18.3 5.9 28.9 8.6 48.8 12.3 21.2 3.9 34 5 60 5 26.1 0 36-.8 58.4-4.5 71-11.7 138.1-46.4 189.5-98.1 5.3-5.3 11.8-12.3 18.6-20 4.6-5.1 18.7-23.7 24.2-32 19.4-28.9 33-57.9 45.2-96.4 3.4-10.5 9.6-40 10.7-50.6.3-3.5.8-6.7 1-7 1-1.8 1.9-21.9 1.8-41.9-.1-20.6-.3-25.6-2-40.5-1.9-16.9-7-42.1-11.4-55.9-1.2-3.8-2.3-7.6-2.5-8.5-.4-2.2-9.2-25.6-11.6-31.1-4-9-17.3-35-17.9-35-.3 0-2.4 2.1-4.6 4.7z" fill="#00fff8"/></svg>