<?xml version="1.0" standalone="no"?>
<!DOCTYPE svg PUBLIC "-//W3C//DTD SVG 20010904//EN"
 "http://www.w3.org/TR/2001/REC-SVG-20010904/DTD/svg10.dtd">
<svg version="1.0" xmlns="http://www.w3.org/2000/svg"
 width="700.000000pt" height="700.000000pt" viewBox="0 0 700.000000 700.000000"
 preserveAspectRatio="xMidYMid meet">
<metadata>
Created by potrace 1.11, written by Peter Selinger 2001-2013
</metadata>
<g transform="translate(0.000000,700.000000) scale(0.100000,-0.100000)"
fill="#000000" stroke="none">
<path d="M4346 6872 c-9 -27 -126 -492 -132 -522 -3 -14 -9 -38 -14 -55 -6
-16 -37 -138 -69 -270 -33 -132 -89 -358 -125 -502 -36 -143 -66 -264 -66
-267 0 -3 581 -6 1290 -6 710 0 1290 3 1290 6 0 10 -35 66 -113 184 -332 498
-793 907 -1324 1174 -141 71 -308 144 -405 176 -60 20 -318 100 -324 100 -1 0
-5 -8 -8 -18z"/>
<path d="M1960 6638 c-130 -63 -263 -140 -400 -231 -93 -62 -216 -151 -230
-167 -3 -3 -27 -23 -55 -45 -115 -92 -333 -305 -434 -425 -35 -41 -73 -86 -84
-100 -48 -57 -202 -280 -261 -379 -110 -182 -212 -397 -287 -606 -42 -113
-117 -369 -124 -417 -2 -14 -10 -61 -19 -105 -26 -129 -29 -149 -41 -263 -4
-36 -9 -78 -12 -95 -8 -49 -10 -473 -2 -560 11 -127 19 -208 24 -235 3 -14 7
-41 10 -60 5 -31 32 -181 40 -220 21 -102 123 -431 160 -515 7 -16 25 -59 40
-95 157 -377 420 -763 730 -1076 213 -214 406 -367 655 -521 127 -78 330 -186
337 -179 4 4 1053 3145 1053 3153 0 1 -490 3 -1090 3 -600 0 -1090 3 -1090 8
0 4 21 61 46 127 25 66 52 140 61 165 8 25 21 59 28 75 7 17 84 219 170 450
86 231 160 430 165 442 5 12 32 84 60 160 29 76 69 183 90 238 20 55 74 197
118 315 44 118 115 307 158 420 42 113 87 232 99 265 52 143 146 392 154 410
18 39 42 108 39 110 -2 2 -50 -19 -108 -47z"/>
<path d="M6494 5173 c-21 -26 -66 -79 -99 -117 -67 -79 -176 -208 -275 -325
-114 -135 -494 -585 -516 -611 -12 -14 -77 -90 -144 -170 -68 -80 -142 -167
-165 -195 -24 -27 -84 -99 -135 -160 -51 -60 -111 -132 -135 -160 -53 -61
-181 -213 -203 -240 -27 -32 -175 -207 -203 -240 -37 -43 -206 -242 -254 -299
-54 -65 -67 -80 -90 -108 -35 -41 -129 -152 -150 -177 -11 -13 -38 -45 -60
-71 -22 -25 -123 -145 -225 -266 -102 -120 -194 -230 -206 -244 -12 -14 -77
-90 -144 -170 -67 -80 -133 -157 -146 -172 -12 -14 -58 -68 -101 -120 -43 -51
-88 -104 -100 -118 -12 -14 -76 -90 -144 -170 -67 -80 -136 -161 -153 -181
-17 -20 -49 -58 -71 -85 -38 -45 -176 -209 -270 -319 -24 -27 -80 -93 -124
-145 l-81 -95 112 -37 c183 -59 289 -86 488 -123 212 -39 340 -50 600 -50 261
0 360 8 584 45 710 117 1381 464 1895 981 53 53 118 123 186 200 46 51 187
237 242 320 194 289 330 579 452 964 34 105 96 400 107 506 3 35 8 67 10 70
10 18 19 219 18 419 -1 206 -3 256 -20 405 -19 169 -70 421 -114 559 -12 38
-23 76 -25 85 -4 22 -92 256 -116 311 -40 90 -173 350 -179 350 -3 0 -24 -21
-46 -47z"/>
</g>
</svg>
